PathFileType	4	(X/Y/Z)	Kane _Static
DataRate	CameraRate	NumFrames	NumMarkers	Units	OrigDataRate	OrigDataStartFrame	OrigNumFrames
250	250	4	66	mm	250	566	200
Frame#	Time	LASI			RASI			LPSI			RPSI			C7			T10			CLAV			STRN			RTH1			RTH2			RTH3			RTB1			RTB2			RTB3			RCAL			RMT1			RMT2			LTH1			LTH2			LTH3			LTB1			LTB2			LTB3			LCAL			LMT1			LMT2			RLFC			RMFC			LLFC			LMFC			RMMAL			RLMAL			LMMAL			LLMAL			G_LCAL			G_LMT1			G_LMT2			G_RCAL			G_RMT1			G_RMT2			LAJC			LKJC			OPelvis			RAJC			RKJC			Reg_LHJC			Reg_RHJC			SACR			fun_LAJC			fun_LHJC			fun_LKJC			fun_LLAJC			fun_LLKJC			fun_LMAJC			fun_LMKJC			fun_RAJC			fun_RHJC			fun_RKJC			fun_RLAJC			fun_RLKJC			fun_RMAJC			fun_RMKJC			RHJC			LHJC			G_RAJC			G_LAJC		
		X1	Y1	Z1	X2	Y2	Z2	X3	Y3	Z3	X4	Y4	Z4	X5	Y5	Z5	X6	Y6	Z6	X7	Y7	Z7	X8	Y8	Z8	X9	Y9	Z9	X10	Y10	Z10	X11	Y11	Z11	X12	Y12	Z12	X13	Y13	Z13	X14	Y14	Z14	X15	Y15	Z15	X16	Y16	Z16	X17	Y17	Z17	X18	Y18	Z18	X19	Y19	Z19	X20	Y20	Z20	X21	Y21	Z21	X22	Y22	Z22	X23	Y23	Z23	X24	Y24	Z24	X25	Y25	Z25	X26	Y26	Z26	X27	Y27	Z27	X28	Y28	Z28	X29	Y29	Z29	X30	Y30	Z30	X31	Y31	Z31	X32	Y32	Z32	X33	Y33	Z33	X34	Y34	Z34	X35	Y35	Z35	X36	Y36	Z36	X37	Y37	Z37	X38	Y38	Z38	X39	Y39	Z39	X40	Y40	Z40	X41	Y41	Z41	X42	Y42	Z42	X43	Y43	Z43	X44	Y44	Z44	X45	Y45	Z45	X46	Y46	Z46	X47	Y47	Z47	X48	Y48	Z48	X49	Y49	Z49	X50	Y50	Z50	X51	Y51	Z51	X52	Y52	Z52	X53	Y53	Z53	X54	Y54	Z54	X55	Y55	Z55	X56	Y56	Z56	X57	Y57	Z57	X58	Y58	Z58	X59	Y59	Z59	X60	Y60	Z60	X61	Y61	Z61	X62	Y62	Z62	X63	Y63	Z63	X64	Y64	Z64	X65	Y65	Z65	X66	Y66	Z66	
555	2.22	556.889295	1038.679687	-667.194525	555.004753	1037.990038	-461.386201	385.646266	1110.675547	-620.762377	383.376201	1105.478141	-509.549660	392.076232	1543.078320	-568.115226	370.082561	1299.899073	-565.858994	525.396294	1490.548235	-563.186898	591.853763	1319.354610	-561.403561	474.606590	898.718057	-391.352844	569.197095	794.059131	-459.893353	478.923663	695.026386	-388.825986	469.642303	411.857494	-483.141288	413.413768	331.581280	-378.724571	435.524450	221.183448	-462.564815	312.306523	 56.911415	-438.161483	553.749928	 59.739036	-431.302335	527.790632	 56.250711	-352.491070	441.794555	861.844884	-749.140087	545.083077	749.803546	-713.572429	425.428052	663.532552	-739.589964	462.479292	415.215118	-670.443221	388.932869	337.286740	-765.022303	424.300611	221.006464	-682.818008	301.950576	 59.856796	-703.056749	547.803206	 54.566393	-701.386436	515.754311	 52.672847	-794.787779	471.125280	502.367600	-414.152285	483.832498	488.740235	-516.710364	441.544612	510.496441	-729.186998	456.847522	508.393028	-627.471847	414.367381	106.907371	-472.394942	393.334393	108.554821	-385.369596	424.251509	117.929126	-676.565461	377.629622	108.983438	-758.714019	301.950576	  0.000000	-703.056749	547.803206	  0.000000	-701.386436	515.754311	  0.000000	-794.787779	312.306523	  0.000000	-438.161483	553.749928	  0.000000	-431.302335	527.790632	  0.000000	-352.491070	400.940565	113.456282	-717.639740	449.196067	509.444735	-678.329422	555.947023	1038.334863	-564.290363	403.850887	107.731096	-428.882267	477.478889	495.553917	-465.431325	486.001491	996.220292	-634.891162	485.049890	995.617539	-495.013251	384.511236	1108.076843	-565.156024	384.887191	118.558959	-709.084611	475.677803	952.065276	-664.186743	449.196070	509.444732	-678.329421	372.638678	114.762900	-756.510975	441.544612	510.496441	-729.186998	397.135698	122.355018	-661.658246	456.847522	508.393028	-627.471847	397.210526	104.332339	-430.422776	474.993173	949.113656	-476.019021	477.478887	495.553917	-465.431324	385.917846	101.254637	-387.023811	471.125280	502.367600	-414.152285	408.503213	107.410040	-473.821740	483.832498	488.740235	-516.710364	474.993173	949.113656	-476.019021	475.677803	952.065276	-664.186743	403.850887	  0.000000	-428.882267	400.940565	  0.000000	-717.639740	
556	2.224	556.960265	1038.674777	-667.219367	555.108818	1037.987265	-461.411893	385.724643	1110.673833	-620.775399	383.464893	1105.479691	-509.560883	392.155045	1543.081112	-568.107846	370.158124	1299.901569	-565.859883	525.433996	1490.542695	-563.188247	591.926917	1319.352466	-561.423433	474.694340	898.721507	-391.368120	569.259652	794.050099	-459.906096	478.971240	695.030971	-388.829717	469.654637	411.867105	-483.151862	413.424248	331.586813	-378.724503	435.538271	221.191864	-462.570381	312.312150	 56.918065	-438.164741	553.755448	 59.733317	-431.302934	527.794084	 56.245324	-352.489974	441.846991	861.842716	-749.153892	545.132603	749.794857	-713.584447	425.464812	663.533507	-739.595201	462.500204	415.215947	-670.448168	388.951083	337.290502	-765.027092	424.315879	221.008268	-682.818428	301.953294	 59.861159	-703.054501	547.807655	 54.563828	-701.386720	515.754478	 52.671043	-794.787302	471.133203	502.374472	-414.144263	483.833074	488.738684	-516.702130	441.570836	510.495724	-729.186213	456.877514	508.395165	-627.471570	414.375254	106.910895	-472.396050	393.342437	108.559019	-385.372659	424.255429	117.929876	-676.564469	377.633749	108.987093	-758.711009	301.953294	  0.000000	-703.054501	547.807655	  0.000000	-701.386720	515.754478	  0.000000	-794.787302	312.312150	  0.000000	-438.164741	553.755448	  0.000000	-431.302934	527.794084	  0.000000	-352.489974	400.944589	113.458485	-717.637739	449.224175	509.445445	-678.328892	556.034541	1038.331022	-564.315630	403.858845	107.734957	-428.884353	477.483139	495.556578	-465.423197	486.080479	996.215163	-634.908373	485.141765	995.617757	-495.030355	384.594770	1108.076762	-565.168147	384.898451	118.561943	-709.086455	475.750725	952.060317	-664.201937	449.224178	509.445441	-678.328891	372.650153	114.765211	-756.511756	441.570836	510.495724	-729.186213	397.146744	122.358674	-661.661154	456.877514	508.395165	-627.471570	397.224724	104.340193	-430.423425	475.088887	949.113657	-476.034068	477.483136	495.556578	-465.423196	385.933070	101.263466	-387.025193	471.133203	502.374472	-414.144263	408.516385	107.416919	-473.821655	483.833074	488.738684	-516.702130	475.088887	949.113657	-476.034068	475.750725	952.060317	-664.201937	403.858845	  0.000000	-428.884353	400.944589	  0.000000	-717.637739	
557	2.228	557.031155	1038.669924	-667.244320	555.212594	1037.984756	-461.437692	385.802574	1110.671784	-620.788650	383.551384	1105.481599	-509.571793	392.234470	1543.084338	-568.100406	370.233363	1299.904541	-565.861170	525.468159	1490.537102	-563.189622	592.000493	1319.350403	-561.443736	474.782317	898.725407	-391.383064	569.321516	794.041319	-459.918631	479.017754	695.035951	-388.833193	469.665274	411.877415	-483.162149	413.433611	331.592538	-378.724139	435.551576	221.200737	-462.575869	312.317668	 56.925037	-438.168135	553.761098	 59.727526	-431.303477	527.797638	 56.239849	-352.488922	441.899340	861.840296	-749.167473	545.181901	749.786187	-713.596272	425.501477	663.534394	-739.600207	462.521216	415.216687	-670.452965	388.969309	337.294271	-765.031841	424.331064	221.009825	-682.818660	301.955982	 59.865503	-703.052352	547.812161	 54.561348	-701.386959	515.754654	 52.669225	-794.786791	471.138751	502.381960	-414.136011	483.831000	488.737708	-516.693693	441.596894	510.494914	-729.185195	456.907329	508.397216	-627.471059	414.383223	106.914543	-472.397116	393.350702	108.563307	-385.375890	424.259505	117.930656	-676.563468	377.637926	108.990801	-758.708045	301.955982	  0.000000	-703.052352	547.812161	  0.000000	-701.386959	515.754654	  0.000000	-794.786791	312.317668	  0.000000	-438.168135	553.761098	  0.000000	-431.303477	527.797638	  0.000000	-352.488922	400.948715	113.460728	-717.635757	449.252111	509.446065	-678.328127	556.121874	1038.327341	-564.341006	403.866962	107.738925	-428.886501	477.484876	495.559834	-465.414852	486.159033	996.210090	-634.925614	485.233348	995.618060	-495.047490	384.676981	1108.076692	-565.180228	384.909556	118.564845	-709.088142	475.823158	952.055443	-664.217175	449.252114	509.446062	-678.328126	372.661471	114.767431	-756.512442	441.596894	510.494914	-729.185195	397.157636	122.362259	-661.663840	456.907329	508.397216	-627.471059	397.239154	104.348228	-430.424117	475.184616	949.113659	-476.049160	477.484873	495.559833	-465.414852	385.948620	101.272358	-387.026714	471.138751	502.381960	-414.136011	408.529694	107.424096	-473.821518	483.831000	488.737708	-516.693693	475.184616	949.113659	-476.049160	475.823158	952.055443	-664.217175	403.866962	  0.000000	-428.886501	400.948715	  0.000000	-717.635757	
558	2.232	557.101931	1038.665090	-667.269379	555.315930	1037.982471	-461.463590	385.880040	1110.669421	-620.802168	383.635650	1105.483890	-509.582444	392.314440	1543.087998	-568.092914	370.308201	1299.907990	-565.862908	525.498809	1490.531474	-563.191039	592.074438	1319.348418	-561.464447	474.870420	898.729776	-391.397668	569.382594	794.032772	-459.930998	479.063127	695.041325	-388.836432	469.674118	411.888425	-483.172135	413.441780	331.598472	-378.723509	435.564307	221.210073	-462.581271	312.323061	 56.932327	-438.171668	553.766867	 59.721679	-431.303963	527.801285	 56.234299	-352.487923	441.951603	861.837629	-749.180824	545.230935	749.777522	-713.607898	425.538026	663.535205	-739.604990	462.542301	415.217338	-670.457617	388.987519	337.298037	-765.036550	424.346141	221.011140	-682.818716	301.958632	 59.869822	-703.050309	547.816705	 54.558962	-701.387152	515.754846	 52.667397	-794.786252	471.141866	502.390058	-414.127570	483.826189	488.737316	-516.685098	441.622744	510.494007	-729.183960	456.936911	508.399168	-627.470326	414.391269	106.918312	-472.398140	393.359195	108.567689	-385.379331	424.263731	117.931463	-676.562467	377.642162	108.994549	-758.705145	301.958632	  0.000000	-703.050309	547.816705	  0.000000	-701.387152	515.754846	  0.000000	-794.786252	312.323061	  0.000000	-438.171668	553.766867	  0.000000	-431.303963	527.801285	  0.000000	-352.487923	400.952947	113.463006	-717.633806	449.279828	509.446587	-678.327143	556.208931	1038.323782	-564.366484	403.875232	107.743000	-428.888734	477.484028	495.563687	-465.406334	486.237078	996.205069	-634.942907	485.324516	995.618427	-495.064677	384.757847	1108.076656	-565.192312	384.920482	118.567666	-709.089675	475.895031	952.050650	-664.232484	449.279830	509.446584	-678.327141	372.672608	114.769561	-756.513039	441.622744	510.494007	-729.183960	397.168353	122.365771	-661.666312	456.936911	508.399168	-627.470326	397.253783	104.356445	-430.424877	475.280198	949.113646	-476.064325	477.484026	495.563687	-465.406334	385.964464	101.281314	-387.028423	471.141866	502.390058	-414.127570	408.543108	107.431574	-473.821328	483.826189	488.737316	-516.685098	475.280198	949.113646	-476.064325	475.895031	952.050650	-664.232484	403.875232	  0.000000	-428.888734	400.952947	  0.000000	-717.633806	
